o UnitTriangularPrism
v -0.5 -0.5 0.5
v 0.5 -0.5 0.5
v 0.0 0.5 0.5
v 0.5 -0.5 -0.5
v -0.5 -0.5 -0.5
v 0.0 0.5 -0.5
v -0.5 -0.5 -0.5
v -0.5 -0.5 0.5
v 0.0 0.5 0.5
v 0.0 0.5 -0.5
v 0.5 -0.5 0.5
v 0.5 -0.5 -0.5
v 0.0 0.5 -0.5
v 0.0 0.5 0.5
v -0.5 -0.5 -0.5
v 0.5 -0.5 -0.5
v 0.5 -0.5 0.5
v -0.5 -0.5 0.5
vn 0.0 0.0 1.0
vn 0.0 0.0 -1.0
vn -0.894427 0.447214 0.0
vn 0.894427 0.447214 0.0
vn 0.0 -1.0 0.0
f 1//1 2//1 3//1
f 4//2 5//2 6//2
f 7//3 8//3 9//3
f 7//3 9//3 10//3
f 11//4 12//4 13//4
f 11//4 13//4 14//4
f 15//5 16//5 17//5
f 15//5 17//5 18//5
